<svg width="30" height="30" viewBox="0 0 30 30" fill="none" xmlns="http://www.w3.org/2000/svg">
<path d="M27.2092 2.88299C27.0915 2.75401 26.9489 2.6502 26.79 2.57781C26.6312 2.50542 26.4593 2.46595 26.2847 2.46179C26.1102 2.45763 25.9366 2.48886 25.7744 2.5536C25.6123 2.61833 25.4649 2.71523 25.3412 2.83846L24.2684 3.90779L26.0953 5.73006L27.15 4.68064C27.39 4.4466 27.5302 4.12879 27.5413 3.79372C27.5523 3.45866 27.4333 3.13231 27.2092 2.88299Z" fill="#FFB835"/>
<path d="M14.8102 19.6877H14.0327H12.1876H10.3126V17.8127V15.9676V15.1901L10.8633 14.6405L18.9575 6.56274H2.81256V27.1877H23.4376V11.0428L15.3598 19.137L14.8102 19.6877Z" fill="#FFB835"/>
<path d="M23.4377 8.38843L25.359 6.46304L23.5373 4.64136L21.6125 6.56265H23.4377V8.38843Z" fill="#FFB835"/>
<path d="M12.1877 17.8127H14.0328L23.4377 8.38853V6.56274H21.6125L12.1877 15.9676V17.8127Z" fill="#FFB835"/>
</svg>
