<svg width="30" height="30" viewBox="0 0 30 30" fill="none" xmlns="http://www.w3.org/2000/svg">
<path d="M25.078 13.125H16.8749C16.129 13.125 15.4136 12.8287 14.8861 12.3012C14.3587 11.7738 14.0624 11.0584 14.0624 10.3125V2.10937C14.0624 2.04721 14.0377 1.9876 13.9937 1.94365C13.9498 1.89969 13.8902 1.875 13.828 1.875H8.43738C7.44282 1.875 6.48899 2.27009 5.78573 2.97335C5.08247 3.67661 4.68738 4.63044 4.68738 5.625V24.375C4.68738 25.3696 5.08247 26.3234 5.78573 27.0266C6.48899 27.7299 7.44282 28.125 8.43738 28.125H21.5624C22.5569 28.125 23.5108 27.7299 24.214 27.0266C24.9173 26.3234 25.3124 25.3696 25.3124 24.375V13.3594C25.3124 13.2972 25.2877 13.2376 25.2437 13.1936C25.1998 13.1497 25.1402 13.125 25.078 13.125ZM19.6874 22.5H10.3124C10.0637 22.5 9.82528 22.4012 9.64947 22.2254C9.47365 22.0496 9.37488 21.8111 9.37488 21.5625C9.37488 21.3139 9.47365 21.0754 9.64947 20.8996C9.82528 20.7238 10.0637 20.625 10.3124 20.625H19.6874C19.936 20.625 20.1745 20.7238 20.3503 20.8996C20.5261 21.0754 20.6249 21.3139 20.6249 21.5625C20.6249 21.8111 20.5261 22.0496 20.3503 22.2254C20.1745 22.4012 19.936 22.5 19.6874 22.5ZM19.6874 17.8125H10.3124C10.0637 17.8125 9.82528 17.7137 9.64947 17.5379C9.47365 17.3621 9.37488 17.1236 9.37488 16.875C9.37488 16.6264 9.47365 16.3879 9.64947 16.2121C9.82528 16.0363 10.0637 15.9375 10.3124 15.9375H19.6874C19.936 15.9375 20.1745 16.0363 20.3503 16.2121C20.5261 16.3879 20.6249 16.6264 20.6249 16.875C20.6249 17.1236 20.5261 17.3621 20.3503 17.5379C20.1745 17.7137 19.936 17.8125 19.6874 17.8125Z" fill="#FFB835"/>
<path d="M24.5636 11.0503L16.1372 2.62392C16.1209 2.60763 16.1 2.59655 16.0774 2.59207C16.0547 2.58759 16.0312 2.58991 16.0098 2.59874C15.9885 2.60757 15.9702 2.62251 15.9573 2.64169C15.9445 2.66087 15.9375 2.68343 15.9374 2.70654V10.3126C15.9374 10.5612 16.0362 10.7997 16.212 10.9755C16.3878 11.1513 16.6263 11.2501 16.8749 11.2501H24.481C24.5041 11.25 24.5267 11.2431 24.5458 11.2302C24.565 11.2173 24.58 11.199 24.5888 11.1777C24.5976 11.1563 24.5999 11.1328 24.5955 11.1102C24.591 11.0875 24.5799 11.0667 24.5636 11.0503Z" fill="#FFB835"/>
</svg>
