<svg width="30" height="30" viewBox="0 0 30 30" fill="none" xmlns="http://www.w3.org/2000/svg">
<path d="M28.5937 13.1252C28.4179 12.8323 26.6829 12.0829 26.6829 12.0829C26.9847 11.927 27.191 11.8948 27.191 11.2502C27.191 10.5471 27.1874 10.3127 26.7187 10.3127H25.1285C25.122 10.2987 25.115 10.284 25.1085 10.2694C24.082 8.02759 23.9443 7.46099 22.4132 6.6981C20.3595 5.67681 16.5093 5.62524 14.9999 5.62524C13.4906 5.62524 9.64037 5.67681 7.58841 6.6981C6.0556 7.45981 6.09369 7.85181 4.8931 10.2694C4.8931 10.2758 4.8808 10.2928 4.86967 10.3127H3.27767C2.81244 10.3127 2.80892 10.5471 2.80892 11.2502C2.80892 11.8948 3.01517 11.927 3.31693 12.0829C3.31693 12.0829 1.64056 12.8909 1.40619 13.1252C1.17181 13.3596 0.937439 15.0002 0.937439 17.8127C0.937439 20.6252 1.17181 23.4377 1.17181 23.4377H1.87142C1.87142 24.2581 1.99213 24.3752 2.34369 24.3752H7.03119C7.38275 24.3752 7.49994 24.2581 7.49994 23.4377H22.4999C22.4999 24.2581 22.6171 24.3752 22.9687 24.3752H27.7734C28.0077 24.3752 28.1249 24.1995 28.1249 23.4377H28.8281C28.8281 23.4377 29.0624 20.5666 29.0624 17.8127C29.0624 15.0588 28.7695 13.4182 28.5937 13.1252ZM7.33939 15.7584C6.27223 15.8751 5.19962 15.935 4.12611 15.9377C2.92963 15.9377 2.88861 16.0145 2.80424 15.2674C2.7725 14.9255 2.78253 14.581 2.83412 14.2415L2.87103 14.0627H3.04681C3.74994 14.0627 4.41029 14.0926 5.65717 14.46C6.29134 14.6503 6.88783 14.9488 7.42025 15.3424C7.67572 15.5276 7.73431 15.7034 7.73431 15.7034L7.33939 15.7584ZM21.8214 19.9772L21.5624 20.6252H8.43744C8.43744 20.6252 8.46029 20.5895 8.14447 19.9702C7.91009 19.512 8.20306 19.219 8.66654 19.0526C9.5642 18.7291 12.1874 17.8127 14.9999 17.8127C17.8124 17.8127 20.4878 18.6026 21.3574 19.0526C21.6796 19.219 22.0798 19.3362 21.8214 19.9807V19.9772ZM6.76283 11.9774C6.57357 11.9883 6.38387 11.9897 6.19447 11.9815C6.3474 11.7096 6.43236 11.4067 6.58177 11.0903C7.05052 10.0942 7.58666 8.96685 8.54115 8.49165C9.92045 7.80493 12.7792 7.49556 14.9999 7.49556C17.2206 7.49556 20.0794 7.80259 21.4587 8.49165C22.4132 8.96685 22.947 10.0948 23.4181 11.0903C23.5687 11.4096 23.6525 11.7149 23.8095 11.9885C23.6923 11.995 23.5576 11.9885 23.2359 11.9774H6.76283ZM27.137 15.2651C27.0117 15.9963 27.1288 15.9377 25.8738 15.9377C24.8003 15.935 23.7276 15.8751 22.6605 15.7584C22.4935 15.7286 22.446 15.4467 22.5796 15.3424C23.1094 14.9445 23.7066 14.6455 24.3427 14.46C25.5896 14.0926 26.2915 14.0434 26.9847 14.068C27.0313 14.0698 27.0755 14.0887 27.1089 14.1212C27.1424 14.1536 27.1626 14.1973 27.1658 14.2438C27.1989 14.5849 27.1892 14.9287 27.137 15.2674V15.2651Z" fill="#FFB835"/>
</svg>
