<svg width="20" height="20" viewBox="0 0 20 20" fill="none" xmlns="http://www.w3.org/2000/svg">
<path d="M16.6668 8.33332C16.6668 12.4942 12.051 16.8275 10.501 18.1658C10.3566 18.2744 10.1808 18.3331 10.0002 18.3331C9.8195 18.3331 9.64373 18.2744 9.49933 18.1658C7.94933 16.8275 3.3335 12.4942 3.3335 8.33332C3.3335 6.56521 4.03588 4.86952 5.28612 3.61928C6.53636 2.36904 8.23205 1.66666 10.0002 1.66666C11.7683 1.66666 13.464 2.36904 14.7142 3.61928C15.9645 4.86952 16.6668 6.56521 16.6668 8.33332Z" stroke="white" stroke-linecap="round" stroke-linejoin="round"/>
<path d="M10.0002 10.8333C11.3809 10.8333 12.5002 9.71403 12.5002 8.33332C12.5002 6.95261 11.3809 5.83332 10.0002 5.83332C8.61945 5.83332 7.50016 6.95261 7.50016 8.33332C7.50016 9.71403 8.61945 10.8333 10.0002 10.8333Z" stroke="white" stroke-linecap="round" stroke-linejoin="round"/>
</svg>
