<svg width="19" height="18" viewBox="0 0 19 18" fill="none" xmlns="http://www.w3.org/2000/svg">
<path d="M6.89105 1.86753C6.60421 1.19258 5.90967 0.75 5.13731 0.75H2.53943C1.55115 0.75 0.75 1.50386 0.75 2.43403C0.75 10.3404 7.56 16.75 15.9603 16.75C16.9486 16.75 17.7496 15.9959 17.7496 15.0657L17.75 12.6202C17.75 11.8933 17.2799 11.2397 16.5628 10.9697L14.0729 10.0326C13.4287 9.79011 12.6953 9.89925 12.1623 10.3173L11.5197 10.8217C10.7692 11.4104 9.66498 11.3635 8.9742 10.7134L7.16471 9.00872C6.47393 8.35856 6.42288 7.32008 7.04829 6.61372L7.58413 6.00894C8.02828 5.5073 8.14527 4.81681 7.88761 4.21053L6.89105 1.86753Z" stroke="white" stroke-width="1.5" stroke-linecap="round" stroke-linejoin="round"/>
</svg>
